<svg version="1.1" preserveAspectRatio="none" xmlns="http://www.w3.org/2000/svg" width="500" height="500" viewBox="0 0 500 500"><rect width="100%" height="100%" fill="#F1F1F1" fill-opacity="1"/><svg viewBox="113.7843 237.6893 336.3892 261.8365" width="333" height="259.19843591887013" x="83.5px" y="120.4008px" xmlns="http://www.w3.org/2000/svg" xmlns:xlink="http://www.w3.org/1999/xlink" preserveAspectRatio="none"><defs></defs><style>.companyName {fill:#3B3B6B;fill-opacity:1;}.icon1 {fill:#D24848;fill-opacity:1;}.icon2 {fill:#CCAF60;fill-opacity:1;}.icon3 {fill:#797468;fill-opacity:1;}.icon3-str {stroke:#797468;stroke-opacity:1;}.text {fill:#D24848;fill-opacity:1;}</style><g opacity="1" transform="rotate(0 160.124 479.5258)">
<svg width="243.7099" height="20" x="160.124" y="479.5258" version="1.1" preserveAspectRatio="none" viewBox="4.2 -28.32 348.96000000000004 28.64">
  <g transform="matrix(1 0 0 1 0 0)" class="text"><path id="id-6izo4zJp13" d="M4.20 0L4.20-28L8.20-28L8.20 0L4.20 0Z M28.16 0L28.16-24.52L18.56-24.52L18.56-28L41.72-28L41.72-24.52L32.12-24.52L32.12 0L28.16 0Z M77.00 0.32Q73.84 0.32 70.90-0.66Q67.96-1.64 66.28-3.20L66.28-3.20L67.76-6.32Q69.36-4.88 71.86-3.98Q74.36-3.08 77.00-3.08L77.00-3.08Q80.48-3.08 82.20-4.26Q83.92-5.44 83.92-7.40L83.92-7.40Q83.92-8.84 82.98-9.74Q82.04-10.64 80.66-11.12Q79.28-11.60 76.76-12.20L76.76-12.20Q73.60-12.96 71.66-13.72Q69.72-14.48 68.34-16.06Q66.96-17.64 66.96-20.32L66.96-20.32Q66.96-22.56 68.14-24.36Q69.32-26.16 71.72-27.24Q74.12-28.32 77.68-28.32L77.68-28.32Q80.16-28.32 82.56-27.68Q84.96-27.04 86.68-25.84L86.68-25.84L85.36-22.64Q83.60-23.76 81.60-24.34Q79.60-24.92 77.68-24.92L77.68-24.92Q74.28-24.92 72.58-23.68Q70.88-22.44 70.88-20.48L70.88-20.48Q70.88-19.04 71.84-18.14Q72.80-17.24 74.22-16.74Q75.64-16.24 78.08-15.68L78.08-15.68Q81.24-14.92 83.16-14.16Q85.08-13.40 86.46-11.84Q87.84-10.28 87.84-7.64L87.84-7.64Q87.84-5.44 86.64-3.62Q85.44-1.80 83.00-0.74Q80.56 0.32 77.00 0.32L77.00 0.32Z M110.60-28Q116.04-28 119.16-25.40Q122.28-22.80 122.28-18.24L122.28-18.24Q122.28-13.68 119.16-11.08Q116.04-8.48 110.60-8.48L110.60-8.48L103.68-8.48L103.68 0L99.68 0L99.68-28L110.60-28ZM110.48-11.96Q114.28-11.96 116.28-13.58Q118.28-15.20 118.28-18.24L118.28-18.24Q118.28-21.28 116.28-22.90Q114.28-24.52 110.48-24.52L110.48-24.52L103.68-24.52L103.68-11.96L110.48-11.96Z M138.16-3.48L154.48-3.48L154.48 0L134.16 0L134.16-28L153.92-28L153.92-24.52L138.16-24.52L138.16-15.92L152.20-15.92L152.20-12.52L138.16-12.52L138.16-3.48Z M179.36 0.32Q175.16 0.32 171.78-1.54Q168.40-3.40 166.48-6.66Q164.56-9.92 164.56-14L164.56-14Q164.56-18.08 166.48-21.34Q168.40-24.60 171.80-26.46Q175.20-28.32 179.40-28.32L179.40-28.32Q182.68-28.32 185.40-27.22Q188.12-26.12 190.04-23.96L190.04-23.96L187.44-21.44Q184.28-24.76 179.56-24.76L179.56-24.76Q176.44-24.76 173.92-23.36Q171.40-21.96 169.98-19.50Q168.56-17.04 168.56-14L168.56-14Q168.56-10.96 169.98-8.50Q171.40-6.04 173.92-4.64Q176.44-3.24 179.56-3.24L179.56-3.24Q184.24-3.24 187.44-6.60L187.44-6.60L190.04-4.08Q188.12-1.92 185.38-0.80Q182.64 0.32 179.36 0.32L179.36 0.32Z M201.76 0L201.76-28L205.76-28L205.76 0L201.76 0Z M241.08 0L238-7L223.12-7L220.04 0L215.92 0L228.60-28L232.56-28L245.28 0L241.08 0ZM224.52-10.20L236.60-10.20L230.56-23.92L224.52-10.20Z M255.44 0L255.44-28L259.44-28L259.44-3.48L274.60-3.48L274.60 0L255.44 0Z M285.20 0L285.20-28L289.20-28L289.20 0L285.20 0Z M311.76 0.32Q308.60 0.32 305.66-0.66Q302.72-1.64 301.04-3.20L301.04-3.20L302.52-6.32Q304.12-4.88 306.62-3.98Q309.12-3.08 311.76-3.08L311.76-3.08Q315.24-3.08 316.96-4.26Q318.68-5.44 318.68-7.40L318.68-7.40Q318.68-8.84 317.74-9.74Q316.80-10.64 315.42-11.12Q314.04-11.60 311.52-12.20L311.52-12.20Q308.36-12.96 306.42-13.72Q304.48-14.48 303.10-16.06Q301.72-17.64 301.72-20.32L301.72-20.32Q301.72-22.56 302.90-24.36Q304.08-26.16 306.48-27.24Q308.88-28.32 312.44-28.32L312.44-28.32Q314.92-28.32 317.32-27.68Q319.72-27.04 321.44-25.84L321.44-25.84L320.12-22.64Q318.36-23.76 316.36-24.34Q314.36-24.92 312.44-24.92L312.44-24.92Q309.04-24.92 307.34-23.68Q305.64-22.44 305.64-20.48L305.64-20.48Q305.64-19.04 306.60-18.14Q307.56-17.24 308.98-16.74Q310.40-16.24 312.84-15.68L312.84-15.68Q316-14.92 317.92-14.16Q319.84-13.40 321.22-11.84Q322.60-10.28 322.60-7.64L322.60-7.64Q322.60-5.44 321.40-3.62Q320.20-1.80 317.76-0.74Q315.32 0.32 311.76 0.32L311.76 0.32Z M339.60 0L339.60-24.52L330-24.52L330-28L353.16-28L353.16-24.52L343.56-24.52L343.56 0L339.60 0Z"/></g>
</svg>
</g><g opacity="1" transform="rotate(0 113.7843 407.5258)">
<svg width="336.3892" height="50" x="113.7843" y="407.5258" version="1.1" preserveAspectRatio="none" viewBox="3.76 -28.4 193.76000000000002 28.8">
  <g transform="matrix(1 0 0 1 0 0)" class="companyName"><path id="id-D6z1nYkh7" d="M15.28-28Q18.92-28 21.62-26.80Q24.32-25.60 25.76-23.36Q27.20-21.12 27.20-18.04L27.20-18.04Q27.20-15 25.76-12.74Q24.32-10.48 21.62-9.28Q18.92-8.08 15.28-8.08L15.28-8.08L8.96-8.08L8.96 0L3.76 0L3.76-28L15.28-28ZM15.04-12.48Q18.44-12.48 20.20-13.92Q21.96-15.36 21.96-18.04L21.96-18.04Q21.96-20.72 20.20-22.16Q18.44-23.60 15.04-23.60L15.04-23.60L8.96-23.60L8.96-12.48L15.04-12.48Z M45.88 0.40Q41.60 0.40 38.16-1.46Q34.72-3.32 32.76-6.62Q30.80-9.92 30.80-14L30.80-14Q30.80-18.08 32.76-21.38Q34.72-24.68 38.16-26.54Q41.60-28.40 45.88-28.40L45.88-28.40Q50.16-28.40 53.60-26.54Q57.04-24.68 59-21.40Q60.96-18.12 60.96-14L60.96-14Q60.96-9.88 59-6.60Q57.04-3.32 53.60-1.46Q50.16 0.40 45.88 0.40L45.88 0.40ZM45.88-4.16Q48.68-4.16 50.92-5.42Q53.16-6.68 54.44-8.94Q55.72-11.20 55.72-14L55.72-14Q55.72-16.80 54.44-19.06Q53.16-21.32 50.92-22.58Q48.68-23.84 45.88-23.84L45.88-23.84Q43.08-23.84 40.84-22.58Q38.60-21.32 37.32-19.06Q36.04-16.80 36.04-14L36.04-14Q36.04-11.20 37.32-8.94Q38.60-6.68 40.84-5.42Q43.08-4.16 45.88-4.16L45.88-4.16Z M79.44 0.40Q75.20 0.40 71.78-1.46Q68.36-3.32 66.42-6.60Q64.48-9.88 64.48-14L64.48-14Q64.48-18.12 66.44-21.40Q68.40-24.68 71.82-26.54Q75.24-28.40 79.48-28.40L79.48-28.40Q82.92-28.40 85.76-27.20Q88.60-26 90.56-23.72L90.56-23.72L87.20-20.56Q84.16-23.84 79.72-23.84L79.72-23.84Q76.84-23.84 74.56-22.58Q72.28-21.32 71-19.08Q69.72-16.84 69.72-14L69.72-14Q69.72-11.16 71-8.92Q72.28-6.68 74.56-5.42Q76.84-4.16 79.72-4.16L79.72-4.16Q84.16-4.16 87.20-7.48L87.20-7.48L90.56-4.28Q88.60-2 85.74-0.80Q82.88 0.40 79.44 0.40L79.44 0.40Z M115.24-28L120.44-28L120.44 0L115.24 0L115.24-12L100.76-12L100.76 0L95.56 0L95.56-28L100.76-28L100.76-16.44L115.24-16.44L115.24-28Z M127.96 0L127.96-28L133.16-28L133.16 0L127.96 0Z M160.44-28L165.60-28L165.60 0L161.32 0L145.88-18.96L145.88 0L140.72 0L140.72-28L145.00-28L160.44-9.04L160.44-28Z M192.24-5.60L192.24-14.32L197.16-14.32L197.16-3.16Q195-1.44 192.12-0.52Q189.24 0.40 186.20 0.40L186.20 0.40Q181.92 0.40 178.48-1.46Q175.04-3.32 173.08-6.60Q171.12-9.88 171.12-14L171.12-14Q171.12-18.12 173.08-21.40Q175.04-24.68 178.50-26.54Q181.96-28.40 186.28-28.40L186.28-28.40Q189.80-28.40 192.68-27.24Q195.56-26.08 197.52-23.84L197.52-23.84L194.24-20.64Q191.04-23.84 186.52-23.84L186.52-23.84Q183.56-23.84 181.26-22.60Q178.96-21.36 177.66-19.12Q176.36-16.88 176.36-14L176.36-14Q176.36-11.20 177.66-8.96Q178.96-6.72 181.26-5.44Q183.56-4.16 186.48-4.16L186.48-4.16Q189.76-4.16 192.24-5.60L192.24-5.60Z"/></g>
</svg>
</g><g opacity="1" transform="rotate(0 197.8816 237.6893)">
<svg width="168.1946" height="139.8365" x="197.8816" y="237.6893" version="1.1" preserveAspectRatio="none" viewBox="13.999996185302734 28.5 171.99957275390625 143">
  <g transform="matrix(1 0 0 1 0 0)"><g><path d="M172.471 78.528h-1.867a.388.388 0 0 1 0-.776h1.867c.149 0 .297-.003.444-.008a.388.388 0 1 1 .028.776c-.157.006-.314.008-.472.008zm-3.416 0h-2.324a.388.388 0 0 1 0-.776h2.324a.388.388 0 0 1 0 .776zm-3.874 0h-2.324a.388.388 0 0 1 0-.776h2.324a.388.388 0 0 1 0 .776zm-3.874 0h-2.324a.388.388 0 0 1 0-.776h2.324a.388.388 0 0 1 0 .776zm-3.874 0h-2.171a.388.388 0 0 1 0-.776h2.171a.388.388 0 0 1 0 .776zm17.037-.151a.388.388 0 0 1-.057-.772 12.676 12.676 0 0 0 2.187-.537.389.389 0 0 1 .251.735c-.752.257-1.533.449-2.321.569a.317.317 0 0 1-.06.005zm3.688-1.141a.388.388 0 0 1-.168-.738 12.734 12.734 0 0 0 1.937-1.153.388.388 0 0 1 .453.63c-.647.467-1.338.879-2.054 1.223a.391.391 0 0 1-.168.038zm3.195-2.167a.388.388 0 0 1-.262-.674 12.912 12.912 0 0 0 1.522-1.666.387.387 0 1 1 .615.473 13.644 13.644 0 0 1-1.615 1.766.377.377 0 0 1-.26.101zm2.437-3.002a.388.388 0 0 1-.332-.587c.384-.649.713-1.334.975-2.036a.387.387 0 1 1 .726.273 13.664 13.664 0 0 1-1.034 2.159.388.388 0 0 1-.335.191zm1.463-3.582a.388.388 0 0 1-.377-.481c.178-.728.292-1.478.34-2.232a.39.39 0 0 1 .411-.363.388.388 0 0 1 .362.412 13.628 13.628 0 0 1-.361 2.367.386.386 0 0 1-.375.297zm.359-3.851a.388.388 0 0 1-.387-.368 12.92 12.92 0 0 0-.314-2.236.387.387 0 1 1 .754-.176c.18.775.292 1.573.334 2.371a.388.388 0 0 1-.367.408l-.02.001zm-.764-3.792a.386.386 0 0 1-.364-.256 12.886 12.886 0 0 0-.951-2.046.39.39 0 0 1 .141-.531.385.385 0 0 1 .529.141c.398.69.738 1.421 1.009 2.171a.39.39 0 0 1-.364.521zm-1.832-3.403a.387.387 0 0 1-.311-.156 12.895 12.895 0 0 0-1.502-1.683.39.39 0 0 1-.018-.549.385.385 0 0 1 .547-.018 13.694 13.694 0 0 1 1.593 1.785.39.39 0 0 1-.309.621zm-2.739-2.728a.389.389 0 0 1-.23-.076 12.803 12.803 0 0 0-1.923-1.176.388.388 0 1 1 .343-.696c.712.353 1.399.773 2.04 1.247a.39.39 0 0 1-.23.701zm-3.408-1.817a.384.384 0 0 1-.129-.022 12.724 12.724 0 0 0-2.181-.562.388.388 0 0 1-.319-.446.382.382 0 0 1 .445-.32c.785.129 1.564.33 2.314.596a.39.39 0 0 1-.13.754zm-3.787-.741h-.019a12.969 12.969 0 0 0-.593-.014h-1.713a.388.388 0 0 1 0-.776h1.713c.211 0 .42.005.629.014a.388.388 0 0 1-.017.776zm-3.874-.014h-2.324a.388.388 0 0 1 0-.776h2.324a.388.388 0 0 1 0 .776zm-3.874 0h-2.324a.388.388 0 0 1 0-.776h2.324a.388.388 0 0 1 0 .776zm-3.874 0h-2.324a.388.388 0 0 1 0-.776h2.324a.388.388 0 0 1 0 .776zm-3.874 0h-2.324a.388.388 0 0 1 0-.776h2.324a.388.388 0 0 1 0 .776z" data-color="1" class="icon1"></path><path d="M98.861 166.615h-.775v-1.076a.387.387 0 1 1 .774 0v1.076zm-.388-2.238a.388.388 0 0 1-.387-.388v-2.328a.387.387 0 1 1 .774 0v2.328a.387.387 0 0 1-.387.388zm0-3.88a.388.388 0 0 1-.387-.388v-2.329a.387.387 0 1 1 .774 0v2.329a.386.386 0 0 1-.387.388zm0-3.881a.388.388 0 0 1-.387-.388v-2.329a.387.387 0 1 1 .774 0v2.329a.387.387 0 0 1-.387.388zm0-3.882a.388.388 0 0 1-.387-.388v-2.329a.387.387 0 1 1 .774 0v2.329a.387.387 0 0 1-.387.388zm-.001-3.882a.388.388 0 0 1-.387-.387 36.357 36.357 0 0 0-.084-2.301.388.388 0 1 1 .773-.055c.053.758.082 1.55.087 2.352a.388.388 0 0 1-.386.39l-.003.001zm-.232-3.871a.388.388 0 0 1-.384-.342 26.143 26.143 0 0 0-.371-2.261.388.388 0 0 1 .759-.162c.157.743.286 1.526.382 2.329a.388.388 0 0 1-.386.436zm-.749-3.801a.388.388 0 0 1-.372-.281 19.101 19.101 0 0 0-.751-2.149.388.388 0 1 1 .714-.303c.297.705.56 1.457.783 2.238a.39.39 0 0 1-.374.495zm-1.432-3.591a.387.387 0 0 1-.342-.205 14.58 14.58 0 0 0-1.217-1.906.389.389 0 0 1 .618-.469c.47.622.902 1.298 1.282 2.008a.389.389 0 0 1-.341.572zm-2.25-3.139a.386.386 0 0 1-.281-.121 13.529 13.529 0 0 0-1.683-1.503.39.39 0 0 1-.077-.544.387.387 0 0 1 .543-.077 14.477 14.477 0 0 1 1.78 1.589.39.39 0 0 1-.282.656zm-3.017-2.41a.385.385 0 0 1-.198-.055 15.967 15.967 0 0 0-2.025-1.02.389.389 0 0 1 .299-.717c.747.313 1.461.673 2.123 1.07a.389.389 0 0 1-.199.722zm-3.526-1.583a.386.386 0 0 1-.12-.019 21.937 21.937 0 0 0-2.206-.588.388.388 0 0 1 .162-.76c.796.17 1.565.375 2.284.609a.388.388 0 0 1-.12.758zm-3.769-.877a.403.403 0 0 1-.059-.005c-.723-.111-1.491-.2-2.283-.265a.389.389 0 0 1 .063-.775c.81.067 1.597.158 2.337.272a.388.388 0 0 1-.058.773zm-3.858-.365h-.018a57.525 57.525 0 0 0-2.311-.053.388.388 0 0 1 .001-.777h.002c.756.003 1.54.018 2.342.054a.388.388 0 0 1-.016.776zm-39.918-.015c-.39 0-.779-.009-1.166-.027a.388.388 0 0 1 .036-.776c.382.017.769.021 1.154.026h1.152a.388.388 0 0 1 0 .776h-1.152l-.024.001zm32.168 0h-2.324a.388.388 0 0 1 0-.776h2.324a.388.388 0 0 1 0 .776zm-3.874 0H65.69a.388.388 0 0 1 0-.776h2.324a.388.388 0 0 1 .001.776zm-3.874 0h-2.324a.388.388 0 0 1 0-.776h2.324a.388.388 0 0 1 0 .776zm-3.874 0h-2.324a.388.388 0 0 1 0-.776h2.324a.388.388 0 0 1 0 .776zm-3.874 0h-2.324a.388.388 0 0 1 0-.776h2.324a.388.388 0 0 1 0 .776zm-3.874 0h-2.324a.388.388 0 0 1 0-.776h2.324a.388.388 0 0 1 0 .776zm-3.874 0H46.32a.388.388 0 0 1 0-.776h2.324a.388.388 0 0 1 .001.776zm-3.874 0h-2.324a.388.388 0 0 1 0-.776h2.324a.388.388 0 0 1 0 .776zm28.668-.002a.387.387 0 0 1-.387-.385.387.387 0 0 1 .384-.391c.395-.003.811-.009 1.244-.016l1.08-.015a.389.389 0 0 1 .009.777l-1.077.014c-.434.006-.852.013-1.249.016h-.004zm-36.41-.142l-.042-.002a25.708 25.708 0 0 1-2.331-.358.388.388 0 0 1 .152-.762c.743.149 1.504.266 2.261.347a.388.388 0 0 1 .344.427.386.386 0 0 1-.384.348zm-3.805-.705a.374.374 0 0 1-.099-.013 25.624 25.624 0 0 1-2.25-.711.388.388 0 0 1 .267-.729c.714.263 1.448.495 2.181.689a.388.388 0 0 1-.099.764zm-3.65-1.278a.39.39 0 0 1-.155-.033 25.475 25.475 0 0 1-2.114-1.048.389.389 0 0 1 .376-.68c.664.368 1.353.71 2.05 1.016a.389.389 0 0 1-.157.745zm-3.413-1.824a.383.383 0 0 1-.207-.061 25.664 25.664 0 0 1-1.931-1.358.39.39 0 0 1-.07-.545.385.385 0 0 1 .543-.07c.601.465 1.231.908 1.872 1.317a.388.388 0 0 1-.207.717zm-3.098-2.324a.38.38 0 0 1-.255-.096 26.021 26.021 0 0 1-1.703-1.636.388.388 0 0 1 .561-.536 25.256 25.256 0 0 0 1.653 1.587.39.39 0 0 1-.256.681zm-2.712-2.768a.389.389 0 0 1-.297-.138 26.004 26.004 0 0 1-1.436-1.875.387.387 0 1 1 .635-.445c.433.622.902 1.235 1.393 1.819a.388.388 0 0 1-.295.639zm-2.262-3.148a.386.386 0 0 1-.331-.186 25.828 25.828 0 0 1-1.136-2.073.39.39 0 0 1 .177-.52.386.386 0 0 1 .518.178c.336.685.706 1.361 1.102 2.01a.388.388 0 0 1-.33.591zm-1.76-3.458a.39.39 0 0 1-.358-.239 25.59 25.59 0 0 1-.806-2.223.387.387 0 1 1 .739-.231c.227.729.49 1.454.782 2.155a.39.39 0 0 1-.357.538zm-1.21-3.685a.388.388 0 0 1-.376-.295 25.7 25.7 0 0 1-.457-2.32.388.388 0 1 1 .767-.115c.113.754.262 1.511.443 2.25a.388.388 0 0 1-.377.48zm-.633-3.827a.388.388 0 0 1-.386-.354c-.067-.757-.1-1.53-.1-2.296 0-.215.173-.42.387-.42s.387.141.387.356v.064c0 .743.033 1.493.097 2.228a.388.388 0 0 1-.352.421l-.033.001zm-.048-3.879l-.025-.001a.387.387 0 0 1-.362-.412c.05-.787.135-1.578.255-2.35a.388.388 0 0 1 .765.119c-.116.75-.199 1.517-.247 2.28a.387.387 0 0 1-.386.364zm.535-3.841a.388.388 0 0 1-.378-.471 25.47 25.47 0 0 1 .61-2.285.388.388 0 1 1 .739.235c-.23.726-.429 1.471-.592 2.216a.39.39 0 0 1-.379.305zm1.115-3.715a.388.388 0 0 1-.362-.528c.282-.732.602-1.46.951-2.164a.386.386 0 0 1 .519-.175c.191.096.27.328.174.521a24.748 24.748 0 0 0-.922 2.098.384.384 0 0 1-.36.248zm1.667-3.498a.389.389 0 0 1-.335-.582c.392-.682.819-1.352 1.269-1.993a.388.388 0 1 1 .633.447 24.877 24.877 0 0 0-1.231 1.933.386.386 0 0 1-.336.195zm2.181-3.204a.388.388 0 0 1-.303-.631 25.99 25.99 0 0 1 1.556-1.777.387.387 0 1 1 .559.538 24.946 24.946 0 0 0-1.509 1.724.387.387 0 0 1-.303.146zm2.641-2.837a.388.388 0 0 1-.262-.674 25.845 25.845 0 0 1 1.806-1.521.387.387 0 1 1 .471.616 25.35 25.35 0 0 0-1.752 1.475.379.379 0 0 1-.263.104zm3.038-2.403a.389.389 0 0 1-.216-.711c.653-.44 1.331-.853 2.016-1.228a.387.387 0 1 1 .372.682 25.13 25.13 0 0 0-1.956 1.191.391.391 0 0 1-.216.066zm3.369-1.914a.388.388 0 0 1-.165-.74c.71-.334 1.443-.638 2.18-.905a.388.388 0 1 1 .263.73c-.714.259-1.425.554-2.114.878a.37.37 0 0 1-.164.037zm3.618-1.373a.388.388 0 0 1-.109-.761 25.509 25.509 0 0 1 2.292-.559.386.386 0 0 1 .454.307.388.388 0 0 1-.306.456c-.745.146-1.493.328-2.222.543a.453.453 0 0 1-.109.014zm3.785-.802a.389.389 0 0 1-.051-.774 26.02 26.02 0 0 1 2.349-.203.389.389 0 0 1 .031.776 25.562 25.562 0 0 0-2.329.201zm13.936-.22h-2.324a.388.388 0 0 1 0-.776h2.324a.388.388 0 0 1 0 .776zm-3.874 0h-2.324a.388.388 0 0 1 0-.776h2.324a.388.388 0 0 1 0 .776zm-3.874 0h-2.324a.388.388 0 0 1 0-.776h2.324a.388.388 0 0 1 0 .776z" data-color="1" class="icon1"></path><path d="M29.875 39.691a.775.775 0 0 0-.983-.487l-2.409.818v-2.577a.776.776 0 1 0-1.55 0v2.577l-2.409-.818a.778.778 0 0 0-.498 1.472l2.428.824-1.492 2.03a.778.778 0 0 0 .623 1.237.773.773 0 0 0 .625-.316l1.497-2.037 1.497 2.037a.773.773 0 0 0 1.084.165.777.777 0 0 0 .164-1.086L26.96 41.5l2.428-.824a.777.777 0 0 0 .487-.985z" data-color="2" class="icon2"></path><path d="M177.474 132.771a.851.851 0 0 1-.1-.006l-3.621-.466a.777.777 0 0 1 .197-1.54l3.621.466a.777.777 0 0 1-.097 1.546z" data-color="1" class="icon1"></path><path d="M175.883 136.036a.777.777 0 0 1-.695-1.118l1.589-3.265a.77.77 0 0 1 1.036-.357.777.777 0 0 1 .356 1.039l-1.589 3.265a.774.774 0 0 1-.697.436z" data-color="1" class="icon1"></path><path d="M177.472 132.771a.776.776 0 0 1-.759-.624l-.715-3.562a.778.778 0 0 1 .607-.915.777.777 0 0 1 .913.608l.715 3.562a.778.778 0 0 1-.761.931z" data-color="1" class="icon1"></path><path d="M177.474 132.771a.775.775 0 0 1-.377-1.455l3.125-1.742a.777.777 0 0 1 .753 1.358l-3.125 1.742a.778.778 0 0 1-.376.097z" data-color="1" class="icon1"></path><path d="M180.057 135.248a.768.768 0 0 1-.535-.215l-2.584-2.477a.779.779 0 0 1-.025-1.098.774.774 0 0 1 1.096-.025l2.584 2.477a.779.779 0 0 1-.536 1.338z" data-color="1" class="icon1"></path><path d="M163.86 147.09a1.373 1.373 0 0 1-1.072 1.618 1.373 1.373 0 0 1-1.615-1.077 1.373 1.373 0 0 1 1.073-1.617 1.373 1.373 0 0 1 1.615 1.077z" data-color="2" class="icon2"></path><path d="M147.308 91.424H56.256V35.742h91.052v55.682zM57.805 89.87h87.953V37.295H57.805V89.87z" data-color="1" class="icon1"></path><path d="M110.937 58.295L86.505 78.913a1.168 1.168 0 0 0-.141 1.642 1.157 1.157 0 0 0 1.638.141l24.432-20.618a1.168 1.168 0 0 0 .141-1.642 1.16 1.16 0 0 0-1.638-.141z" data-color="2" class="icon2"></path><path d="M92.887 68.026a1.16 1.16 0 0 0-1.637-.141L75.513 81.166a1.168 1.168 0 0 0-.141 1.642 1.157 1.157 0 0 0 1.638.141l15.737-13.281a1.167 1.167 0 0 0 .14-1.642z" data-color="2" class="icon2"></path><path d="M164.977 107.613v-.336h-.335l-10.24-10.261V32.388a3.887 3.887 0 0 0-3.877-3.888H53.039a3.887 3.887 0 0 0-3.877 3.888v64.629l-10.643 10.665h.745v6.154a4.325 4.325 0 0 0 4.316 4.326h117.083a4.326 4.326 0 0 0 4.315-4.326v-6.154h.068l-.069-.069zM51.486 32.388c0-.858.696-1.557 1.553-1.557h97.486c.856 0 1.553.699 1.553 1.557v63.947H51.486V32.388zm-.681 66.277h101.954l6.672 6.686h-46.425l-.552 4.108H91.11l-.552-4.108H44.132l6.673-6.686zm111.847 15.171c0 1.1-.893 1.996-1.991 1.996H43.578a1.996 1.996 0 0 1-1.991-1.996v-6.154h46.938l.296 2.2a2.204 2.204 0 0 0 2.176 1.908h21.57c1.094 0 2.029-.82 2.176-1.908l.296-2.201h47.614v6.155z" data-color="2" class="icon2"></path><path d="M98.473 171.5l8.064-14.005H90.409l8.064 14.005z" data-color="1" class="icon1"></path></g></g>
</svg>
</g></svg></svg>