<svg version="1.1" preserveAspectRatio="none" xmlns="http://www.w3.org/2000/svg" width="500" height="500" viewBox="0 0 500 500"><rect width="100%" height="100%" fill="#0B0633" fill-opacity="1"/><svg viewBox="199.8712 198.1929 532.9229 122.4" width="333" height="76.48235795459343" x="83.5px" y="211.7588px" xmlns="http://www.w3.org/2000/svg" xmlns:xlink="http://www.w3.org/1999/xlink" preserveAspectRatio="none"><defs></defs><style>.companyName {fill:#F5F4F4;fill-opacity:1;}.icon1 {fill:#FF4949;fill-opacity:1;}.icon2 {fill:#4F53FF;fill-opacity:1;}.icon3 {fill:#EB63DD;fill-opacity:1;}.icon3-str {stroke:#EB63DD;stroke-opacity:1;}.shapeStroke-str {stroke:#313131;stroke-opacity:1;}.text {fill:#F9F9F9;fill-opacity:1;}</style><g opacity="1" transform="rotate(0 199.8712 213.1929)">
<svg width="111.1382" height="92.4" x="199.8712" y="213.1929" version="1.1" preserveAspectRatio="none" viewBox="13.999996185302734 28.5 171.99957275390625 143">
  <g transform="matrix(1 0 0 1 0 0)"><g><path d="M172.471 78.528h-1.867a.388.388 0 0 1 0-.776h1.867c.149 0 .297-.003.444-.008a.388.388 0 1 1 .028.776c-.157.006-.314.008-.472.008zm-3.416 0h-2.324a.388.388 0 0 1 0-.776h2.324a.388.388 0 0 1 0 .776zm-3.874 0h-2.324a.388.388 0 0 1 0-.776h2.324a.388.388 0 0 1 0 .776zm-3.874 0h-2.324a.388.388 0 0 1 0-.776h2.324a.388.388 0 0 1 0 .776zm-3.874 0h-2.171a.388.388 0 0 1 0-.776h2.171a.388.388 0 0 1 0 .776zm17.037-.151a.388.388 0 0 1-.057-.772 12.676 12.676 0 0 0 2.187-.537.389.389 0 0 1 .251.735c-.752.257-1.533.449-2.321.569a.317.317 0 0 1-.06.005zm3.688-1.141a.388.388 0 0 1-.168-.738 12.734 12.734 0 0 0 1.937-1.153.388.388 0 0 1 .453.63c-.647.467-1.338.879-2.054 1.223a.391.391 0 0 1-.168.038zm3.195-2.167a.388.388 0 0 1-.262-.674 12.912 12.912 0 0 0 1.522-1.666.387.387 0 1 1 .615.473 13.644 13.644 0 0 1-1.615 1.766.377.377 0 0 1-.26.101zm2.437-3.002a.388.388 0 0 1-.332-.587c.384-.649.713-1.334.975-2.036a.387.387 0 1 1 .726.273 13.664 13.664 0 0 1-1.034 2.159.388.388 0 0 1-.335.191zm1.463-3.582a.388.388 0 0 1-.377-.481c.178-.728.292-1.478.34-2.232a.39.39 0 0 1 .411-.363.388.388 0 0 1 .362.412 13.628 13.628 0 0 1-.361 2.367.386.386 0 0 1-.375.297zm.359-3.851a.388.388 0 0 1-.387-.368 12.92 12.92 0 0 0-.314-2.236.387.387 0 1 1 .754-.176c.18.775.292 1.573.334 2.371a.388.388 0 0 1-.367.408l-.02.001zm-.764-3.792a.386.386 0 0 1-.364-.256 12.886 12.886 0 0 0-.951-2.046.39.39 0 0 1 .141-.531.385.385 0 0 1 .529.141c.398.69.738 1.421 1.009 2.171a.39.39 0 0 1-.364.521zm-1.832-3.403a.387.387 0 0 1-.311-.156 12.895 12.895 0 0 0-1.502-1.683.39.39 0 0 1-.018-.549.385.385 0 0 1 .547-.018 13.694 13.694 0 0 1 1.593 1.785.39.39 0 0 1-.309.621zm-2.739-2.728a.389.389 0 0 1-.23-.076 12.803 12.803 0 0 0-1.923-1.176.388.388 0 1 1 .343-.696c.712.353 1.399.773 2.04 1.247a.39.39 0 0 1-.23.701zm-3.408-1.817a.384.384 0 0 1-.129-.022 12.724 12.724 0 0 0-2.181-.562.388.388 0 0 1-.319-.446.382.382 0 0 1 .445-.32c.785.129 1.564.33 2.314.596a.39.39 0 0 1-.13.754zm-3.787-.741h-.019a12.969 12.969 0 0 0-.593-.014h-1.713a.388.388 0 0 1 0-.776h1.713c.211 0 .42.005.629.014a.388.388 0 0 1-.017.776zm-3.874-.014h-2.324a.388.388 0 0 1 0-.776h2.324a.388.388 0 0 1 0 .776zm-3.874 0h-2.324a.388.388 0 0 1 0-.776h2.324a.388.388 0 0 1 0 .776zm-3.874 0h-2.324a.388.388 0 0 1 0-.776h2.324a.388.388 0 0 1 0 .776zm-3.874 0h-2.324a.388.388 0 0 1 0-.776h2.324a.388.388 0 0 1 0 .776z" data-color="1" class="icon1"></path><path d="M98.861 166.615h-.775v-1.076a.387.387 0 1 1 .774 0v1.076zm-.388-2.238a.388.388 0 0 1-.387-.388v-2.328a.387.387 0 1 1 .774 0v2.328a.387.387 0 0 1-.387.388zm0-3.88a.388.388 0 0 1-.387-.388v-2.329a.387.387 0 1 1 .774 0v2.329a.386.386 0 0 1-.387.388zm0-3.881a.388.388 0 0 1-.387-.388v-2.329a.387.387 0 1 1 .774 0v2.329a.387.387 0 0 1-.387.388zm0-3.882a.388.388 0 0 1-.387-.388v-2.329a.387.387 0 1 1 .774 0v2.329a.387.387 0 0 1-.387.388zm-.001-3.882a.388.388 0 0 1-.387-.387 36.357 36.357 0 0 0-.084-2.301.388.388 0 1 1 .773-.055c.053.758.082 1.55.087 2.352a.388.388 0 0 1-.386.39l-.003.001zm-.232-3.871a.388.388 0 0 1-.384-.342 26.143 26.143 0 0 0-.371-2.261.388.388 0 0 1 .759-.162c.157.743.286 1.526.382 2.329a.388.388 0 0 1-.386.436zm-.749-3.801a.388.388 0 0 1-.372-.281 19.101 19.101 0 0 0-.751-2.149.388.388 0 1 1 .714-.303c.297.705.56 1.457.783 2.238a.39.39 0 0 1-.374.495zm-1.432-3.591a.387.387 0 0 1-.342-.205 14.58 14.58 0 0 0-1.217-1.906.389.389 0 0 1 .618-.469c.47.622.902 1.298 1.282 2.008a.389.389 0 0 1-.341.572zm-2.25-3.139a.386.386 0 0 1-.281-.121 13.529 13.529 0 0 0-1.683-1.503.39.39 0 0 1-.077-.544.387.387 0 0 1 .543-.077 14.477 14.477 0 0 1 1.78 1.589.39.39 0 0 1-.282.656zm-3.017-2.41a.385.385 0 0 1-.198-.055 15.967 15.967 0 0 0-2.025-1.02.389.389 0 0 1 .299-.717c.747.313 1.461.673 2.123 1.07a.389.389 0 0 1-.199.722zm-3.526-1.583a.386.386 0 0 1-.12-.019 21.937 21.937 0 0 0-2.206-.588.388.388 0 0 1 .162-.76c.796.17 1.565.375 2.284.609a.388.388 0 0 1-.12.758zm-3.769-.877a.403.403 0 0 1-.059-.005c-.723-.111-1.491-.2-2.283-.265a.389.389 0 0 1 .063-.775c.81.067 1.597.158 2.337.272a.388.388 0 0 1-.058.773zm-3.858-.365h-.018a57.525 57.525 0 0 0-2.311-.053.388.388 0 0 1 .001-.777h.002c.756.003 1.54.018 2.342.054a.388.388 0 0 1-.016.776zm-39.918-.015c-.39 0-.779-.009-1.166-.027a.388.388 0 0 1 .036-.776c.382.017.769.021 1.154.026h1.152a.388.388 0 0 1 0 .776h-1.152l-.024.001zm32.168 0h-2.324a.388.388 0 0 1 0-.776h2.324a.388.388 0 0 1 0 .776zm-3.874 0H65.69a.388.388 0 0 1 0-.776h2.324a.388.388 0 0 1 .001.776zm-3.874 0h-2.324a.388.388 0 0 1 0-.776h2.324a.388.388 0 0 1 0 .776zm-3.874 0h-2.324a.388.388 0 0 1 0-.776h2.324a.388.388 0 0 1 0 .776zm-3.874 0h-2.324a.388.388 0 0 1 0-.776h2.324a.388.388 0 0 1 0 .776zm-3.874 0h-2.324a.388.388 0 0 1 0-.776h2.324a.388.388 0 0 1 0 .776zm-3.874 0H46.32a.388.388 0 0 1 0-.776h2.324a.388.388 0 0 1 .001.776zm-3.874 0h-2.324a.388.388 0 0 1 0-.776h2.324a.388.388 0 0 1 0 .776zm28.668-.002a.387.387 0 0 1-.387-.385.387.387 0 0 1 .384-.391c.395-.003.811-.009 1.244-.016l1.08-.015a.389.389 0 0 1 .009.777l-1.077.014c-.434.006-.852.013-1.249.016h-.004zm-36.41-.142l-.042-.002a25.708 25.708 0 0 1-2.331-.358.388.388 0 0 1 .152-.762c.743.149 1.504.266 2.261.347a.388.388 0 0 1 .344.427.386.386 0 0 1-.384.348zm-3.805-.705a.374.374 0 0 1-.099-.013 25.624 25.624 0 0 1-2.25-.711.388.388 0 0 1 .267-.729c.714.263 1.448.495 2.181.689a.388.388 0 0 1-.099.764zm-3.65-1.278a.39.39 0 0 1-.155-.033 25.475 25.475 0 0 1-2.114-1.048.389.389 0 0 1 .376-.68c.664.368 1.353.71 2.05 1.016a.389.389 0 0 1-.157.745zm-3.413-1.824a.383.383 0 0 1-.207-.061 25.664 25.664 0 0 1-1.931-1.358.39.39 0 0 1-.07-.545.385.385 0 0 1 .543-.07c.601.465 1.231.908 1.872 1.317a.388.388 0 0 1-.207.717zm-3.098-2.324a.38.38 0 0 1-.255-.096 26.021 26.021 0 0 1-1.703-1.636.388.388 0 0 1 .561-.536 25.256 25.256 0 0 0 1.653 1.587.39.39 0 0 1-.256.681zm-2.712-2.768a.389.389 0 0 1-.297-.138 26.004 26.004 0 0 1-1.436-1.875.387.387 0 1 1 .635-.445c.433.622.902 1.235 1.393 1.819a.388.388 0 0 1-.295.639zm-2.262-3.148a.386.386 0 0 1-.331-.186 25.828 25.828 0 0 1-1.136-2.073.39.39 0 0 1 .177-.52.386.386 0 0 1 .518.178c.336.685.706 1.361 1.102 2.01a.388.388 0 0 1-.33.591zm-1.76-3.458a.39.39 0 0 1-.358-.239 25.59 25.59 0 0 1-.806-2.223.387.387 0 1 1 .739-.231c.227.729.49 1.454.782 2.155a.39.39 0 0 1-.357.538zm-1.21-3.685a.388.388 0 0 1-.376-.295 25.7 25.7 0 0 1-.457-2.32.388.388 0 1 1 .767-.115c.113.754.262 1.511.443 2.25a.388.388 0 0 1-.377.48zm-.633-3.827a.388.388 0 0 1-.386-.354c-.067-.757-.1-1.53-.1-2.296 0-.215.173-.42.387-.42s.387.141.387.356v.064c0 .743.033 1.493.097 2.228a.388.388 0 0 1-.352.421l-.033.001zm-.048-3.879l-.025-.001a.387.387 0 0 1-.362-.412c.05-.787.135-1.578.255-2.35a.388.388 0 0 1 .765.119c-.116.75-.199 1.517-.247 2.28a.387.387 0 0 1-.386.364zm.535-3.841a.388.388 0 0 1-.378-.471 25.47 25.47 0 0 1 .61-2.285.388.388 0 1 1 .739.235c-.23.726-.429 1.471-.592 2.216a.39.39 0 0 1-.379.305zm1.115-3.715a.388.388 0 0 1-.362-.528c.282-.732.602-1.46.951-2.164a.386.386 0 0 1 .519-.175c.191.096.27.328.174.521a24.748 24.748 0 0 0-.922 2.098.384.384 0 0 1-.36.248zm1.667-3.498a.389.389 0 0 1-.335-.582c.392-.682.819-1.352 1.269-1.993a.388.388 0 1 1 .633.447 24.877 24.877 0 0 0-1.231 1.933.386.386 0 0 1-.336.195zm2.181-3.204a.388.388 0 0 1-.303-.631 25.99 25.99 0 0 1 1.556-1.777.387.387 0 1 1 .559.538 24.946 24.946 0 0 0-1.509 1.724.387.387 0 0 1-.303.146zm2.641-2.837a.388.388 0 0 1-.262-.674 25.845 25.845 0 0 1 1.806-1.521.387.387 0 1 1 .471.616 25.35 25.35 0 0 0-1.752 1.475.379.379 0 0 1-.263.104zm3.038-2.403a.389.389 0 0 1-.216-.711c.653-.44 1.331-.853 2.016-1.228a.387.387 0 1 1 .372.682 25.13 25.13 0 0 0-1.956 1.191.391.391 0 0 1-.216.066zm3.369-1.914a.388.388 0 0 1-.165-.74c.71-.334 1.443-.638 2.18-.905a.388.388 0 1 1 .263.73c-.714.259-1.425.554-2.114.878a.37.37 0 0 1-.164.037zm3.618-1.373a.388.388 0 0 1-.109-.761 25.509 25.509 0 0 1 2.292-.559.386.386 0 0 1 .454.307.388.388 0 0 1-.306.456c-.745.146-1.493.328-2.222.543a.453.453 0 0 1-.109.014zm3.785-.802a.389.389 0 0 1-.051-.774 26.02 26.02 0 0 1 2.349-.203.389.389 0 0 1 .031.776 25.562 25.562 0 0 0-2.329.201zm13.936-.22h-2.324a.388.388 0 0 1 0-.776h2.324a.388.388 0 0 1 0 .776zm-3.874 0h-2.324a.388.388 0 0 1 0-.776h2.324a.388.388 0 0 1 0 .776zm-3.874 0h-2.324a.388.388 0 0 1 0-.776h2.324a.388.388 0 0 1 0 .776z" data-color="1" class="icon1"></path><path d="M29.875 39.691a.775.775 0 0 0-.983-.487l-2.409.818v-2.577a.776.776 0 1 0-1.55 0v2.577l-2.409-.818a.778.778 0 0 0-.498 1.472l2.428.824-1.492 2.03a.778.778 0 0 0 .623 1.237.773.773 0 0 0 .625-.316l1.497-2.037 1.497 2.037a.773.773 0 0 0 1.084.165.777.777 0 0 0 .164-1.086L26.96 41.5l2.428-.824a.777.777 0 0 0 .487-.985z" data-color="2" class="icon2"></path><path d="M177.474 132.771a.851.851 0 0 1-.1-.006l-3.621-.466a.777.777 0 0 1 .197-1.54l3.621.466a.777.777 0 0 1-.097 1.546z" data-color="1" class="icon1"></path><path d="M175.883 136.036a.777.777 0 0 1-.695-1.118l1.589-3.265a.77.77 0 0 1 1.036-.357.777.777 0 0 1 .356 1.039l-1.589 3.265a.774.774 0 0 1-.697.436z" data-color="1" class="icon1"></path><path d="M177.472 132.771a.776.776 0 0 1-.759-.624l-.715-3.562a.778.778 0 0 1 .607-.915.777.777 0 0 1 .913.608l.715 3.562a.778.778 0 0 1-.761.931z" data-color="1" class="icon1"></path><path d="M177.474 132.771a.775.775 0 0 1-.377-1.455l3.125-1.742a.777.777 0 0 1 .753 1.358l-3.125 1.742a.778.778 0 0 1-.376.097z" data-color="1" class="icon1"></path><path d="M180.057 135.248a.768.768 0 0 1-.535-.215l-2.584-2.477a.779.779 0 0 1-.025-1.098.774.774 0 0 1 1.096-.025l2.584 2.477a.779.779 0 0 1-.536 1.338z" data-color="1" class="icon1"></path><path d="M163.86 147.09a1.373 1.373 0 0 1-1.072 1.618 1.373 1.373 0 0 1-1.615-1.077 1.373 1.373 0 0 1 1.073-1.617 1.373 1.373 0 0 1 1.615 1.077z" data-color="2" class="icon2"></path><path d="M147.308 91.424H56.256V35.742h91.052v55.682zM57.805 89.87h87.953V37.295H57.805V89.87z" data-color="1" class="icon1"></path><path d="M110.937 58.295L86.505 78.913a1.168 1.168 0 0 0-.141 1.642 1.157 1.157 0 0 0 1.638.141l24.432-20.618a1.168 1.168 0 0 0 .141-1.642 1.16 1.16 0 0 0-1.638-.141z" data-color="2" class="icon2"></path><path d="M92.887 68.026a1.16 1.16 0 0 0-1.637-.141L75.513 81.166a1.168 1.168 0 0 0-.141 1.642 1.157 1.157 0 0 0 1.638.141l15.737-13.281a1.167 1.167 0 0 0 .14-1.642z" data-color="2" class="icon2"></path><path d="M164.977 107.613v-.336h-.335l-10.24-10.261V32.388a3.887 3.887 0 0 0-3.877-3.888H53.039a3.887 3.887 0 0 0-3.877 3.888v64.629l-10.643 10.665h.745v6.154a4.325 4.325 0 0 0 4.316 4.326h117.083a4.326 4.326 0 0 0 4.315-4.326v-6.154h.068l-.069-.069zM51.486 32.388c0-.858.696-1.557 1.553-1.557h97.486c.856 0 1.553.699 1.553 1.557v63.947H51.486V32.388zm-.681 66.277h101.954l6.672 6.686h-46.425l-.552 4.108H91.11l-.552-4.108H44.132l6.673-6.686zm111.847 15.171c0 1.1-.893 1.996-1.991 1.996H43.578a1.996 1.996 0 0 1-1.991-1.996v-6.154h46.938l.296 2.2a2.204 2.204 0 0 0 2.176 1.908h21.57c1.094 0 2.029-.82 2.176-1.908l.296-2.201h47.614v6.155z" data-color="2" class="icon2"></path><path d="M98.473 171.5l8.064-14.005H90.409l8.064 14.005z" data-color="1" class="icon1"></path></g></g>
</svg>
</g><g opacity="1" transform="rotate(0 349.0094 285.1929)">
<svg width="209.7628" height="20.4" x="349.0094" y="285.1929" version="1.1" preserveAspectRatio="none" viewBox="3.76 -28.4 296.2 28.8">
  <g transform="matrix(1 0 0 1 0 0)" class="text"><path id="id-6izo4zJp13" d="M3.76 0L3.76-28L8.96-28L8.96 0L3.76 0Z M23.40 0L23.40-23.60L14.12-23.60L14.12-28L37.88-28L37.88-23.60L28.60-23.60L28.60 0L23.40 0Z M63.92 0.40Q60.68 0.40 57.66-0.52Q54.64-1.44 52.88-2.96L52.88-2.96L54.68-7Q56.40-5.64 58.90-4.78Q61.40-3.92 63.92-3.92L63.92-3.92Q67.04-3.92 68.58-4.92Q70.12-5.92 70.12-7.56L70.12-7.56Q70.12-8.76 69.26-9.54Q68.40-10.32 67.08-10.76Q65.76-11.20 63.48-11.76L63.48-11.76Q60.28-12.52 58.30-13.28Q56.32-14.04 54.90-15.66Q53.48-17.28 53.48-20.04L53.48-20.04Q53.48-22.36 54.74-24.26Q56.00-26.16 58.54-27.28Q61.08-28.40 64.76-28.40L64.76-28.40Q67.32-28.40 69.80-27.76Q72.28-27.12 74.08-25.92L74.08-25.92L72.44-21.88Q70.60-22.96 68.60-23.52Q66.60-24.08 64.72-24.08L64.72-24.08Q61.64-24.08 60.14-23.04Q58.64-22 58.64-20.28L58.64-20.28Q58.64-19.08 59.50-18.32Q60.36-17.56 61.68-17.12Q63-16.68 65.28-16.12L65.28-16.12Q68.40-15.40 70.40-14.62Q72.40-13.84 73.82-12.24Q75.24-10.64 75.24-7.92L75.24-7.92Q75.24-5.60 73.98-3.72Q72.72-1.84 70.16-0.72Q67.60 0.40 63.92 0.40L63.92 0.40Z M93.12-28Q96.76-28 99.46-26.80Q102.16-25.60 103.60-23.36Q105.04-21.12 105.04-18.04L105.04-18.04Q105.04-15 103.60-12.74Q102.16-10.48 99.46-9.28Q96.76-8.08 93.12-8.08L93.12-8.08L86.80-8.08L86.80 0L81.60 0L81.60-28L93.12-28ZM92.88-12.48Q96.28-12.48 98.04-13.92Q99.80-15.36 99.80-18.04L99.80-18.04Q99.80-20.72 98.04-22.16Q96.28-23.60 92.88-23.60L92.88-23.60L86.80-23.60L86.80-12.48L92.88-12.48Z M116.64-4.36L132.44-4.36L132.44 0L111.44 0L111.44-28L131.88-28L131.88-23.64L116.64-23.64L116.64-16.36L130.16-16.36L130.16-12.08L116.64-12.08L116.64-4.36Z M152.28 0.40Q148.04 0.40 144.62-1.46Q141.20-3.32 139.26-6.60Q137.32-9.88 137.32-14L137.32-14Q137.32-18.12 139.28-21.40Q141.24-24.68 144.66-26.54Q148.08-28.40 152.32-28.40L152.32-28.40Q155.76-28.40 158.60-27.20Q161.44-26 163.40-23.72L163.40-23.72L160.04-20.56Q157.00-23.84 152.56-23.84L152.56-23.84Q149.68-23.84 147.40-22.58Q145.12-21.32 143.84-19.08Q142.56-16.84 142.56-14L142.56-14Q142.56-11.16 143.84-8.92Q145.12-6.68 147.40-5.42Q149.68-4.16 152.56-4.16L152.56-4.16Q157.00-4.16 160.04-7.48L160.04-7.48L163.40-4.28Q161.44-2 158.58-0.80Q155.72 0.40 152.28 0.40L152.28 0.40Z M169.60 0L169.60-28L174.80-28L174.80 0L169.60 0Z M204.52 0L201.72-6.48L187.72-6.48L184.96 0L179.60 0L192.20-28L197.32-28L209.96 0L204.52 0ZM189.48-10.56L200.00-10.56L194.72-22.80L189.48-10.56Z M214.72 0L214.72-28L219.92-28L219.92-4.40L234.56-4.40L234.56 0L214.72 0Z M239.88 0L239.88-28L245.08-28L245.08 0L239.88 0Z M262.52 0.40Q259.28 0.40 256.26-0.52Q253.24-1.44 251.48-2.96L251.48-2.96L253.28-7Q255.00-5.64 257.50-4.78Q260.00-3.92 262.52-3.92L262.52-3.92Q265.64-3.92 267.18-4.92Q268.72-5.92 268.72-7.56L268.72-7.56Q268.72-8.76 267.86-9.54Q267.00-10.32 265.68-10.76Q264.36-11.20 262.08-11.76L262.08-11.76Q258.88-12.52 256.90-13.28Q254.92-14.04 253.50-15.66Q252.08-17.28 252.08-20.04L252.08-20.04Q252.08-22.36 253.34-24.26Q254.60-26.16 257.14-27.28Q259.68-28.40 263.36-28.40L263.36-28.40Q265.92-28.40 268.40-27.76Q270.88-27.12 272.68-25.92L272.68-25.92L271.04-21.88Q269.20-22.96 267.20-23.52Q265.20-24.08 263.32-24.08L263.32-24.08Q260.24-24.08 258.74-23.04Q257.24-22 257.24-20.28L257.24-20.28Q257.24-19.08 258.10-18.32Q258.96-17.56 260.28-17.12Q261.60-16.68 263.88-16.12L263.88-16.12Q267.00-15.40 269.00-14.62Q271.00-13.84 272.42-12.24Q273.84-10.64 273.84-7.92L273.84-7.92Q273.84-5.60 272.58-3.72Q271.32-1.84 268.76-0.72Q266.20 0.40 262.52 0.40L262.52 0.40Z M285.48 0L285.48-23.60L276.20-23.60L276.20-28L299.96-28L299.96-23.60L290.68-23.60L290.68 0L285.48 0Z"/></g>
</svg>
</g><g opacity="1" transform="rotate(0 349.0094 213.1929)">
<svg width="383.7847" height="60" x="349.0094" y="213.1929" version="1.1" preserveAspectRatio="none" viewBox="1.36 -28.88 188.31999999999996 29.44">
  <g transform="matrix(1 0 0 1 0 0)" class="companyName"><path id="id-D6z1nYkh7" d="M12.84-11.44L10.72-11.44L10.72-4.48Q10.72-2.88 11.06-2.14Q11.40-1.40 12.26-1.16Q13.12-0.92 15-0.88L15-0.88L15 0Q10.08-0.12 7.68-0.12L7.68-0.12Q5.68-0.12 2.64-0.04L2.64-0.04L1.36 0L1.36-0.80Q2.68-0.88 3.30-1.12Q3.92-1.36 4.14-2.04Q4.36-2.72 4.36-4.24L4.36-4.24L4.36-24.08Q4.36-25.60 4.14-26.28Q3.92-26.96 3.30-27.20Q2.68-27.44 1.36-27.52L1.36-27.52L1.36-28.32Q3.40-28.20 7.44-28.20L7.44-28.20L11.88-28.24Q12.68-28.28 13.72-28.28L13.72-28.28Q19.12-28.28 21.96-26.14Q24.80-24 24.80-20.40L24.80-20.40Q24.80-18.20 23.68-16.18Q22.56-14.16 19.90-12.80Q17.24-11.44 12.84-11.44L12.84-11.44ZM13.20-27.52Q12.12-27.52 11.62-27.24Q11.12-26.96 10.92-26.24Q10.72-25.52 10.72-24.08L10.72-24.08L10.72-12.24L12.44-12.24Q15.68-12.24 16.92-14.32Q18.16-16.40 18.16-19.96L18.16-19.96Q18.16-23.84 17.02-25.68Q15.88-27.52 13.20-27.52L13.20-27.52Z M41.52-28.88Q45.76-28.88 48.94-27.16Q52.12-25.44 53.88-22.18Q55.64-18.92 55.64-14.40L55.64-14.40Q55.64-10 53.84-6.60Q52.04-3.20 48.82-1.32Q45.60 0.56 41.48 0.56L41.48 0.56Q37.24 0.56 34.06-1.16Q30.88-2.88 29.12-6.14Q27.36-9.40 27.36-13.92L27.36-13.92Q27.36-18.32 29.16-21.72Q30.96-25.12 34.18-27Q37.40-28.88 41.52-28.88L41.52-28.88ZM41.36-28.16Q39.16-28.16 37.48-26.38Q35.80-24.60 34.90-21.40Q34-18.20 34-14.08L34-14.08Q34-9.92 35.02-6.76Q36.04-3.60 37.78-1.88Q39.52-0.16 41.64-0.16L41.64-0.16Q43.84-0.16 45.52-1.94Q47.20-3.72 48.10-6.92Q49-10.12 49-14.24L49-14.24Q49-18.40 47.98-21.56Q46.96-24.72 45.22-26.44Q43.48-28.16 41.36-28.16L41.36-28.16Z M73.24-28.88Q75.64-28.88 77.32-28.20Q79-27.52 80.60-26.28L80.60-26.28Q81.04-25.92 81.36-25.92L81.36-25.92Q82.16-25.92 82.40-28.32L82.40-28.32L83.32-28.32Q83.16-25.60 83.16-18.64L83.16-18.64L82.24-18.64Q81.88-21.60 81.28-23.16Q80.68-24.72 79.24-25.88L79.24-25.88Q78.24-26.84 76.92-27.34Q75.60-27.84 74.16-27.84L74.16-27.84Q70.12-27.84 68.16-23.90Q66.20-19.96 66.20-14.08L66.20-14.08Q66.20-8.24 68.24-4.32Q70.28-0.40 74.32-0.40L74.32-0.40Q75.68-0.40 77.02-0.90Q78.36-1.40 79.28-2.36L79.28-2.36Q80.76-3.48 81.34-5.16Q81.92-6.84 82.24-10.08L82.24-10.08L83.16-10.08Q83.16-2.84 83.32 0L83.32 0L82.40 0Q82.28-1.28 82.06-1.82Q81.84-2.36 81.44-2.36L81.44-2.36Q81.12-2.36 80.60-2.04L80.60-2.04Q78.80-0.76 77.16-0.10Q75.52 0.56 73.20 0.56L73.20 0.56Q68.96 0.56 65.78-1.16Q62.60-2.88 60.84-6.14Q59.08-9.40 59.08-13.92L59.08-13.92Q59.08-18.32 60.88-21.72Q62.68-25.12 65.90-27Q69.12-28.88 73.24-28.88L73.24-28.88Z M116.24-27.52Q114.88-27.44 114.28-27.20Q113.68-26.96 113.46-26.28Q113.24-25.60 113.24-24.08L113.24-24.08L113.24-4.24Q113.24-2.72 113.46-2.04Q113.68-1.36 114.28-1.12Q114.88-0.88 116.24-0.80L116.24-0.80L116.24 0Q114.28-0.12 110.16-0.12L110.16-0.12Q106.12-0.12 103.88 0L103.88 0L103.88-0.80Q105.20-0.88 105.82-1.12Q106.44-1.36 106.66-2.04Q106.88-2.72 106.88-4.24L106.88-4.24L106.88-13.84L96.28-13.84L96.28-4.24Q96.28-2.72 96.50-2.04Q96.72-1.36 97.32-1.12Q97.92-0.88 99.28-0.80L99.28-0.80L99.28 0Q97.12-0.12 93.24-0.12L93.24-0.12Q88.96-0.12 86.92 0L86.92 0L86.92-0.80Q88.24-0.88 88.86-1.12Q89.48-1.36 89.70-2.04Q89.92-2.72 89.92-4.24L89.92-4.24L89.92-24.08Q89.92-25.60 89.70-26.28Q89.48-26.96 88.86-27.20Q88.24-27.44 86.92-27.52L86.92-27.52L86.92-28.32Q88.96-28.20 93.24-28.20L93.24-28.20Q97.12-28.20 99.28-28.32L99.28-28.32L99.28-27.52Q97.92-27.44 97.32-27.20Q96.72-26.96 96.50-26.28Q96.28-25.60 96.28-24.08L96.28-24.08L96.28-14.64L106.88-14.64L106.88-24.08Q106.88-25.60 106.66-26.28Q106.44-26.96 105.82-27.20Q105.20-27.44 103.88-27.52L103.88-27.52L103.88-28.32Q106.12-28.20 110.16-28.20L110.16-28.20Q114.28-28.20 116.24-28.32L116.24-28.32L116.24-27.52Z M131.28-28.32L131.28-27.52Q129.92-27.44 129.32-27.20Q128.72-26.96 128.50-26.28Q128.28-25.60 128.28-24.08L128.28-24.08L128.28-4.24Q128.28-2.72 128.50-2.04Q128.72-1.36 129.32-1.12Q129.92-0.88 131.28-0.80L131.28-0.80L131.28 0Q129.12-0.12 125.24-0.12L125.24-0.12Q120.96-0.12 118.92 0L118.92 0L118.92-0.80Q120.24-0.88 120.86-1.12Q121.48-1.36 121.70-2.04Q121.92-2.72 121.92-4.24L121.92-4.24L121.92-24.08Q121.92-25.60 121.70-26.28Q121.48-26.96 120.86-27.20Q120.24-27.44 118.92-27.52L118.92-27.52L118.92-28.32Q120.96-28.20 125.24-28.20L125.24-28.20Q129.12-28.20 131.28-28.32L131.28-28.32Z M160.32-28.32L160.32-27.52Q159-27.32 158.38-26.84Q157.76-26.36 157.54-25.32Q157.32-24.28 157.32-22.24L157.32-22.24L157.32 0.08L156.36 0.04L155.28 0.08L137.92-21.92L137.92-6.56Q137.92-4.20 138.16-3.10Q138.40-2 139.20-1.50Q140-1 141.80-0.80L141.80-0.80L141.80 0Q140.24-0.12 137.48-0.12L137.48-0.12Q135.28-0.12 134 0L134 0L134-0.80Q135.32-1 135.94-1.48Q136.56-1.96 136.78-3Q137-4.04 137-6.08L137-6.08L137-24.08Q137-25.60 136.78-26.28Q136.56-26.96 135.94-27.20Q135.32-27.44 134-27.52L134-27.52L134-28.32Q135.28-28.20 137.48-28.20L137.48-28.20Q139.48-28.20 140.92-28.32L140.92-28.32L156.40-9.24L156.40-21.76Q156.40-24.12 156.16-25.22Q155.92-26.32 155.12-26.82Q154.32-27.32 152.52-27.52L152.52-27.52L152.52-28.32Q154.08-28.20 156.84-28.20L156.84-28.20Q159.08-28.20 160.32-28.32L160.32-28.32Z M177.40-28.88Q179.88-28.88 181.58-28.20Q183.28-27.52 184.92-26.28L184.92-26.28Q185.40-25.92 185.72-25.92L185.72-25.92Q186.12-25.92 186.36-26.50Q186.60-27.08 186.72-28.32L186.72-28.32L187.64-28.32Q187.48-25.60 187.48-18.64L187.48-18.64L186.56-18.64Q186.24-21.36 185.62-23.04Q185-24.72 183.56-25.88L183.56-25.88Q182.60-26.80 181.20-27.32Q179.80-27.84 178.32-27.84L178.32-27.84Q175.52-27.84 173.66-25.94Q171.80-24.04 170.92-20.92Q170.04-17.80 170.04-14.08L170.04-14.08Q170.04-0.24 177.72-0.24L177.72-0.24Q179.48-0.24 180.56-1.04L180.56-1.04Q181.08-1.40 181.30-1.88Q181.52-2.36 181.52-3.12L181.52-3.12L181.52-7.04Q181.52-8.92 181.20-9.78Q180.88-10.64 180.06-10.96Q179.24-11.28 177.48-11.36L177.48-11.36L177.48-12.16Q179.96-12.04 184.32-12.04L184.32-12.04Q187.88-12.04 189.68-12.16L189.68-12.16L189.68-11.36Q188.88-11.28 188.52-11.04Q188.16-10.80 188.02-10.12Q187.88-9.44 187.88-7.92L187.88-7.92L187.88 0L187.08 0Q187.04-0.84 186.74-1.56Q186.44-2.28 185.92-2.28L185.92-2.28Q185.24-2.28 183.76-1.44L183.76-1.44Q180.28 0.56 177.20 0.56L177.20 0.56Q170.28 0.56 166.60-3.22Q162.92-7 162.92-13.84L162.92-13.84Q162.92-18.32 164.78-21.72Q166.64-25.12 169.92-27Q173.20-28.88 177.40-28.88L177.40-28.88Z"/></g>
</svg>
</g><g opacity="1" transform="rotate(0 329.0094 198.1929)">
<svg width="2" height="122.4" x="329.0094" y="198.1929" version="1.1" preserveAspectRatio="none" viewBox="0 0 2 122.4">
  <defs><rect x="0" y="0" width="2" height="122.4" rx="0px" ry="0px" id="id-tBXipXk0b1693014092447"></rect></defs><use class="companyName shapeStroke-str" style="stroke-width:0;" xlink:href="#id-tBXipXk0b1693014092447"></use>
</svg>
</g></svg></svg>